<?xml version="1.0" standalone="no"?>
<!DOCTYPE svg PUBLIC "-//W3C//DTD SVG 1.1//EN"
  "http://www.w3.org/Graphics/SVG/1.1/DTD/svg11.dtd">
<svg width="542.02px" height="180.67px" version="1.1"
    xmlns="http://www.w3.org/2000/svg"
    xmlns:xlink="http://www.w3.org/1999/xlink">
<desc>Veusz output document</desc>
<defs>
<clipPath id="c0">
<path d="m0,0l542.02,0l0,180.67l-542.02,0l0,-180.67"/>
</clipPath>
<clipPath id="c1">
<path d="m87.95,42.78l35.57,0l0,20.2l-35.57,0l0,-20.2"/>
</clipPath>
<clipPath id="c2">
<path d="m87.95,62.98l35.57,0l0,20.2l-35.57,0l0,-20.2"/>
</clipPath>
<clipPath id="c3">
<path d="m67.75,22.58l451.69,0l0,112.92l-451.69,0l0,-112.92"/>
</clipPath>
</defs>
<g stroke-linejoin="bevel" stroke-linecap="square" stroke="#000000" fill-rule="evenodd">
<g clip-path="url(#c0)">
<g fill="#ffffff" stroke="none" stroke-width="1">
<path d="m67.75,22.58l451.69,0l0,112.92l-451.69,0l0,-112.92"/>
<path d="m87.95,42.78l125.15,0l0,40.4l-125.15,0l0,-40.4"/>
</g>
</g>
<g clip-path="url(#c1)">
<g fill="none" stroke-width="1.25">
<path d="M87.95,52.88l35.57,0"/>
</g>
</g>
<g clip-path="url(#c0)">
<g fill="none" stroke-width="1">
<path d="m148.74,52.58c0,-0.5,-0.32,-0.8,-0.82,-0.8c-0.63,0,-1.07,0.35,-1.8,1.41l0,-1.38l-0.07,-0.03c-0.8,0.33,-1.33,0.52,-2.22,0.81l0,0.24c0.21,-0.05,0.35,-0.06,0.52,-0.06c0.37,0,0.51,0.24,0.51,0.9l0,3.75c0,0.75,-0.11,0.85,-1.07,1.03l0,0.22l3.6,0l0,-0.22c-1.02,-0.05,-1.27,-0.27,-1.27,-1.12l0,-3.37c0,-0.48,0.65,-1.23,1.05,-1.23c0.09,0,0.22,0.07,0.39,0.22c0.24,0.21,0.4,0.3,0.6,0.3c0.36,0,0.59,-0.25,0.59,-0.67m11.58,1.6l0,-0.99l-7.26,0l0,0.99l7.26,0m0,2.49l0,-0.99l-7.26,0l0,0.99l7.26,0m11.49,-2.94c0,-3.07,-1.36,-5.19,-3.33,-5.19c-0.82,0,-1.45,0.25,-2.01,0.78c-0.87,0.84,-1.44,2.56,-1.44,4.32c0,1.63,0.5,3.39,1.2,4.23c0.56,0.66,1.32,1.02,2.19,1.02c0.76,0,1.41,-0.25,1.95,-0.78c0.87,-0.82,1.44,-2.56,1.44,-4.38m-1.44,0.03c0,3.14,-0.66,4.74,-1.95,4.74c-1.29,0,-1.95,-1.6,-1.95,-4.72c0,-3.18,0.67,-4.85,1.97,-4.85c1.26,0,1.93,1.7,1.93,4.83m4.52,4.27c0,-0.46,-0.39,-0.85,-0.84,-0.85c-0.45,0,-0.82,0.39,-0.82,0.85c0,0.44,0.37,0.81,0.81,0.81c0.47,0,0.86,-0.37,0.86,-0.81m8.17,-4.3c0,-3.07,-1.36,-5.19,-3.33,-5.19c-0.82,0,-1.45,0.25,-2.01,0.78c-0.87,0.84,-1.44,2.56,-1.44,4.32c0,1.63,0.5,3.39,1.2,4.23c0.56,0.66,1.32,1.02,2.19,1.02c0.76,0,1.41,-0.25,1.95,-0.78c0.87,-0.82,1.44,-2.56,1.44,-4.38m-1.44,0.03c0,3.14,-0.66,4.74,-1.95,4.74c-1.29,0,-1.95,-1.6,-1.95,-4.72c0,-3.18,0.67,-4.85,1.97,-4.85c1.26,0,1.93,1.7,1.93,4.83m11.73,2.72l-0.21,-0.14c-0.72,1.05,-1.26,1.41,-2.12,1.41c-1.38,0,-2.32,-1.2,-2.32,-2.92c0,-1.56,0.82,-2.61,2.04,-2.61c0.54,0,0.73,0.16,0.88,0.72l0.09,0.33c0.12,0.43,0.39,0.69,0.72,0.69c0.39,0,0.71,-0.28,0.71,-0.63c0,-0.84,-1.05,-1.55,-2.31,-1.55c-0.7,0,-1.42,0.27,-2.02,0.77c-0.81,0.67,-1.26,1.71,-1.26,2.95c0,1.93,1.18,3.33,2.85,3.33c0.65,0,1.21,-0.21,1.72,-0.63c0.45,-0.36,0.75,-0.8,1.23,-1.72m12.1,2.2l0,-0.22l-0.39,-0.03c-0.45,-0.03,-0.65,-0.3,-0.65,-0.89l0,-3.1c0,-1.77,-0.58,-2.67,-1.74,-2.67c-0.87,0,-1.64,0.39,-2.45,1.27c-0.27,-0.87,-0.78,-1.27,-1.59,-1.27c-0.66,0,-1.08,0.21,-2.32,1.17l0,-1.14l-0.11,-0.03c-0.76,0.28,-1.27,0.45,-2.1,0.67l0,0.27c0.2,-0.04,0.32,-0.06,0.48,-0.06c0.39,0,0.52,0.24,0.52,0.96l0,3.8c0,0.81,-0.21,1.03,-1.05,1.05l0,0.22l3.33,0l0,-0.22c-0.8,-0.03,-1.02,-0.2,-1.02,-0.78l0,-4.23c0,0,0.12,-0.18,0.22,-0.29c0.37,-0.35,1.02,-0.61,1.55,-0.61c0.66,0,0.99,0.53,0.99,1.59l0,3.25c0,0.84,-0.16,1.01,-1.02,1.07l0,0.22l3.36,0l0,-0.22c-0.85,-0.02,-1.08,-0.27,-1.08,-1.2l0,-3.78c0.45,-0.66,0.94,-0.93,1.63,-0.93c0.85,0,1.12,0.41,1.12,1.66l0,3.17c0,0.85,-0.12,0.97,-0.99,1.08l0,0.22l3.29,0" fill="#000000" stroke="none" fill-opacity="1"/>
</g>
</g>
<g clip-path="url(#c2)">
<g fill="none" stroke-dasharray="5.0,2.5" stroke-width="1.25">
<path d="M87.95,73.08l35.57,0"/>
</g>
</g>
<g clip-path="url(#c0)">
<g fill="none" stroke-width="1">
<path d="m148.74,72.78c0,-0.5,-0.32,-0.8,-0.82,-0.8c-0.63,0,-1.07,0.35,-1.8,1.41l0,-1.38l-0.07,-0.03c-0.8,0.33,-1.33,0.52,-2.22,0.81l0,0.24c0.21,-0.05,0.35,-0.06,0.52,-0.06c0.37,0,0.51,0.24,0.51,0.9l0,3.75c0,0.75,-0.11,0.85,-1.07,1.03l0,0.22l3.6,0l0,-0.22c-1.02,-0.05,-1.27,-0.27,-1.27,-1.12l0,-3.37c0,-0.48,0.65,-1.23,1.05,-1.23c0.09,0,0.22,0.07,0.39,0.22c0.24,0.21,0.4,0.3,0.6,0.3c0.36,0,0.59,-0.25,0.59,-0.67m11.58,1.6l0,-0.99l-7.26,0l0,0.99l7.26,0m0,2.49l0,-0.99l-7.26,0l0,0.99l7.26,0m10.26,2.01l0,-0.22c-1.18,-0.02,-1.42,-0.17,-1.42,-0.88l0,-9l-0.12,-0.03l-2.7,1.36l0,0.21c0.18,-0.07,0.34,-0.14,0.4,-0.17c0.27,-0.1,0.52,-0.17,0.67,-0.17c0.31,0,0.45,0.22,0.45,0.71l0,6.79c0,0.5,-0.12,0.84,-0.36,0.97c-0.22,0.14,-0.43,0.18,-1.06,0.2l0,0.22l4.14,0m4.31,-0.65c0,-0.46,-0.39,-0.85,-0.84,-0.85c-0.45,0,-0.82,0.39,-0.82,0.85c0,0.44,0.37,0.81,0.81,0.81c0.47,0,0.86,-0.37,0.86,-0.81m8.05,-2.64c0,-1.92,-1.1,-3.14,-2.82,-3.14c-0.66,0,-0.97,0.11,-1.92,0.67c0.4,-2.26,2.08,-3.88,4.44,-4.27l-0.03,-0.24c-1.71,0.15,-2.58,0.43,-3.67,1.2c-1.62,1.15,-2.51,2.86,-2.51,4.87c0,1.3,0.41,2.62,1.05,3.37c0.57,0.66,1.38,1.02,2.31,1.02c1.86,0,3.15,-1.42,3.15,-3.49m-1.35,0.51c0,1.65,-0.59,2.57,-1.64,2.57c-1.32,0,-2.13,-1.41,-2.13,-3.74c0,-0.76,0.12,-1.18,0.42,-1.41c0.32,-0.24,0.78,-0.37,1.3,-0.37c1.29,0,2.04,1.08,2.04,2.95m8.4,-7.44l-0.14,-0.11c-0.22,0.32,-0.37,0.39,-0.69,0.39l-3.14,0l-1.63,3.55c-0.02,0.03,-0.02,0.07,-0.02,0.07c0,0.07,0.06,0.12,0.18,0.12c0.48,0,1.08,0.1,1.69,0.3c1.72,0.55,2.52,1.48,2.52,2.97c0,1.44,-0.92,2.56,-2.08,2.56c-0.3,0,-0.55,-0.1,-1,-0.43c-0.48,-0.35,-0.82,-0.5,-1.14,-0.5c-0.43,0,-0.65,0.18,-0.65,0.55c0,0.57,0.7,0.93,1.83,0.93c1.26,0,2.34,-0.4,3.09,-1.17c0.69,-0.67,1,-1.53,1,-2.67c0,-1.08,-0.28,-1.77,-1.03,-2.52c-0.66,-0.66,-1.52,-1,-3.29,-1.32l0.63,-1.27l2.94,0c0.24,0,0.3,-0.03,0.35,-0.13l0.57,-1.33m10.86,8.01l-0.21,-0.14c-0.72,1.05,-1.26,1.41,-2.12,1.41c-1.38,0,-2.32,-1.2,-2.32,-2.92c0,-1.56,0.82,-2.61,2.04,-2.61c0.54,0,0.73,0.16,0.88,0.72l0.09,0.33c0.12,0.43,0.39,0.69,0.72,0.69c0.39,0,0.71,-0.28,0.71,-0.63c0,-0.84,-1.05,-1.55,-2.31,-1.55c-0.7,0,-1.42,0.27,-2.02,0.77c-0.81,0.67,-1.26,1.71,-1.26,2.95c0,1.93,1.18,3.33,2.85,3.33c0.65,0,1.21,-0.21,1.72,-0.63c0.45,-0.36,0.75,-0.8,1.23,-1.72m12.1,2.2l0,-0.22l-0.39,-0.03c-0.45,-0.03,-0.65,-0.3,-0.65,-0.89l0,-3.1c0,-1.77,-0.58,-2.67,-1.74,-2.67c-0.87,0,-1.64,0.39,-2.45,1.27c-0.27,-0.87,-0.78,-1.27,-1.59,-1.27c-0.66,0,-1.08,0.21,-2.32,1.17l0,-1.14l-0.11,-0.03c-0.76,0.28,-1.27,0.45,-2.1,0.67l0,0.27c0.2,-0.04,0.32,-0.06,0.48,-0.06c0.39,0,0.52,0.24,0.52,0.96l0,3.8c0,0.81,-0.21,1.03,-1.05,1.05l0,0.22l3.33,0l0,-0.22c-0.8,-0.03,-1.02,-0.2,-1.02,-0.78l0,-4.23c0,0,0.12,-0.18,0.22,-0.29c0.37,-0.35,1.02,-0.61,1.55,-0.61c0.66,0,0.99,0.53,0.99,1.59l0,3.25c0,0.84,-0.16,1.01,-1.02,1.07l0,0.22l3.36,0l0,-0.22c-0.85,-0.02,-1.08,-0.27,-1.08,-1.2l0,-3.78c0.45,-0.66,0.94,-0.93,1.63,-0.93c0.85,0,1.12,0.41,1.12,1.66l0,3.17c0,0.85,-0.12,0.97,-0.99,1.08l0,0.22l3.29,0" fill="#000000" stroke="none" fill-opacity="1"/>
</g>
</g>
<g clip-path="url(#c3)">
<g fill="none" stroke-dasharray="5.0,2.5" stroke-width="1.25">
<polyline fill="none" points="519.44,135.5 519.02,135.5 518.59,135.5 518.17,135.5 517.74,135.5 517.31,135.5 516.89,135.5 516.46,135.5 516.04,135.5 515.61,135.5 515.19,135.5 514.76,135.5 514.34,135.5 513.91,135.5 513.49,135.5 513.06,135.5 512.64,135.5 512.21,135.5 511.79,135.5 511.36,135.5 510.94,135.5 510.51,135.5 510.09,135.5 509.66,135.5 509.24,135.5 508.81,135.5 508.39,135.5 507.96,135.5 507.54,135.5 507.11,135.5 506.69,135.5 506.26,135.5 505.84,135.5 505.41,135.5 504.99,135.5 504.56,135.5 504.14,135.5 503.71,135.5 503.29,135.5 502.86,135.5 502.43,135.5 502.01,135.5 501.58,135.5 501.16,135.49 500.73,135.49 500.31,135.49 499.88,135.49 499.46,135.49 499.03,135.49 498.61,135.49 498.18,135.49 497.76,135.49 497.33,135.49 496.91,135.49 496.48,135.49 496.06,135.48 495.63,135.48 495.21,135.48 494.78,135.48 494.36,135.48 493.93,135.48 493.51,135.48 493.08,135.47 492.66,135.47 492.23,135.47 491.81,135.47 491.38,135.47 490.96,135.46 490.53,135.46 490.11,135.46 489.68,135.46 489.26,135.45 488.83,135.45 488.41,135.45 487.98,135.44 487.55,135.44 487.13,135.44 486.7,135.43 486.28,135.43 485.85,135.42 485.43,135.42 485,135.41 484.58,135.41 484.15,135.4 483.73,135.4 483.3,135.39 482.88,135.38 482.45,135.38 482.03,135.37 481.6,135.36 481.18,135.35 480.75,135.35 480.33,135.34 479.9,135.33 479.48,135.32 479.05,135.31 478.63,135.29 478.2,135.28 477.78,135.27 477.35,135.26 476.93,135.24 476.5,135.23 476.08,135.21 475.65,135.19 475.23,135.18 474.8,135.16 474.38,135.14 473.95,135.12 473.53,135.1 473.1,135.07 472.67,135.05 472.25,135.02 471.82,134.99 471.4,134.96 470.97,134.93 470.55,134.9 470.12,134.87 469.7,134.83 469.27,134.79 468.85,134.75 468.42,134.7 468,134.66 467.57,134.61 467.15,134.57 466.72,134.51 466.3,134.45 465.87,134.39 465.45,134.32 465.02,134.25 464.6,134.18 464.17,134.11 463.75,134.03 463.32,133.94 462.9,133.85 462.47,133.75 462.05,133.65 461.62,133.54 461.2,133.43 460.77,133.32 460.35,133.19 459.92,133.05 459.5,132.9 459.07,132.76 458.65,132.59 458.22,132.42 457.79,132.24 457.37,132.05 456.94,131.84 456.52,131.62 456.09,131.39 455.67,131.16 455.24,130.89 454.82,130.6 454.39,130.32 453.97,130.01 453.54,129.67 453.12,129.31 452.69,128.92 452.27,128.52 451.84,128.1 451.42,127.62 450.99,127.12 450.57,126.59 450.14,126.03 449.72,125.4 449.29,124.73 448.87,124.02 448.44,123.25 448.02,122.4 447.59,121.51 447.17,120.5 446.74,119.42 446.32,118.24 445.89,116.94 445.47,115.5 445.04,113.93 444.62,112.13 444.19,110.14 443.77,107.89 443.34,105.35 442.91,102.41 442.49,98.98 442.06,94.92 441.64,90.03 441.21,84.14 440.79,76.92 440.36,68.34 439.94,60.4 439.51,65.9 439.09,47.62 438.66,34.63 438.24,33.41 437.81,35.33 437.39,38.35 436.96,41.46 436.54,44.5 436.11,47.35 435.69,49.97 435.26,52.46 434.84,54.8 434.41,56.97 433.99,59.03 433.56,60.99 433.14,62.83 432.71,64.58 432.29,66.27 431.86,67.9 431.44,69.45 431.01,70.95 430.59,72.41 430.16,73.83 429.74,75.2 429.31,76.52 428.89,77.82 428.46,79.06 428.03,80.29 427.61,81.48 427.18,82.63 426.76,83.77 426.33,84.88 425.91,85.97 425.48,87.02 425.06,88.04 424.63,89.06 424.21,90.05 423.78,91.02 423.36,91.96 422.93,92.88 422.51,93.79 422.08,94.68 421.66,95.55 421.23,96.39 420.81,97.22 420.38,98.04 419.96,98.83 419.53,99.62 419.11,100.38 418.68,101.12 418.26,101.86 417.83,102.57 417.41,103.28 416.98,103.96 416.56,104.63 416.13,105.3 415.71,105.94 415.28,106.58 414.86,107.19 414.43,107.8 414.01,108.39 413.58,108.97 413.15,109.55 412.73,110.1 412.3,110.64 411.88,111.18 411.45,111.69 411.03,112.2 410.6,112.71 410.18,113.2 409.75,113.69 409.33,114.15 408.9,114.61 408.48,115.06 408.05,115.51 407.63,115.94 407.2,116.35 406.78,116.76 406.35,117.16 405.93,117.57 405.5,117.96 405.08,118.33 404.65,118.7 404.23,119.07 403.8,119.43 403.38,119.78 402.95,120.11 402.53,120.44 402.1,120.76 401.68,121.09 401.25,121.41 400.83,121.71 400.4,122 399.98,122.3 399.55,122.59 399.13,122.87 398.7,123.14 398.27,123.4 397.85,123.67 397.42,123.93 397,124.18 396.57,124.42 396.15,124.66 395.72,124.9 395.3,125.14 394.87,125.36 394.45,125.57 394.02,125.79 393.6,126 393.17,126.21 392.75,126.42 392.32,126.61 391.9,126.8 391.47,126.99 391.05,127.18 390.62,127.36 390.2,127.53 389.77,127.7 389.35,127.88 388.92,128.05 388.5,128.21 388.07,128.37 387.65,128.52 387.22,128.67 386.8,128.83 386.37,128.97 385.95,129.1 385.52,129.24 385.1,129.38 384.67,129.52 384.25,129.65 383.82,129.77 383.39,129.89 382.97,130.01 382.54,130.13 382.12,130.25 381.69,130.37 381.27,130.48 380.84,130.6 380.42,130.71 379.99,130.81 379.57,130.91 379.14,131 378.72,131.1 378.29,131.19 377.87,131.29 377.44,131.38 377.02,131.47 376.59,131.56 376.17,131.66 375.74,131.74 375.32,131.82 374.89,131.9 374.47,131.98 374.04,132.05 373.62,132.13 373.19,132.2 372.77,132.27 372.34,132.34 371.92,132.41 371.49,132.48 371.07,132.54 370.64,132.61 370.22,132.67 369.79,132.73 369.37,132.79 368.94,132.85 368.51,132.91 368.09,132.97 367.66,133.03 367.24,133.08 366.81,133.13 366.39,133.18 365.96,133.23 365.54,133.28 365.11,133.33 364.69,133.38 364.26,133.42 363.84,133.47 363.41,133.52 362.99,133.56 362.56,133.6 362.14,133.64 361.71,133.68 361.29,133.72 360.86,133.76 360.44,133.8 360.01,133.84 359.59,133.88 359.16,133.91 358.74,133.94 358.31,133.98 357.89,134.01 357.46,134.04 357.04,134.07 356.61,134.1 356.19,134.13 355.76,134.17 355.34,134.2 354.91,134.23 354.49,134.25 354.06,134.28 353.63,134.3 353.21,134.33 352.78,134.35 352.36,134.38 351.93,134.4 351.51,134.43 351.08,134.46 350.66,134.48 350.23,134.5 349.81,134.52 349.38,134.54 348.96,134.56 348.53,134.58 348.11,134.6 347.68,134.62 347.26,134.64 346.83,134.66 346.41,134.68 345.98,134.7 345.56,134.72 345.13,134.73 344.71,134.75 344.28,134.76 343.86,134.78 343.43,134.8 343.01,134.81 342.58,134.83 342.16,134.84 341.73,134.86 341.31,134.87 340.88,134.88 340.46,134.9 340.03,134.91 339.61,134.92 339.18,134.94 338.75,134.95 338.33,134.96 337.9,134.98 337.48,134.99 337.05,135 336.63,135.01 336.2,135.02 335.78,135.03 335.35,135.04 334.93,135.05 334.5,135.06 334.08,135.07 333.65,135.08 333.23,135.09 332.8,135.1 332.38,135.11 331.95,135.12 331.53,135.13 331.1,135.13 330.68,135.14 330.25,135.15 329.83,135.16 329.4,135.17 328.98,135.17 328.55,135.18 328.13,135.19 327.7,135.19 327.28,135.2 326.85,135.2 326.43,135.21 326,135.22 325.58,135.22 325.15,135.23 324.73,135.24 324.3,135.24 323.87,135.25 323.45,135.25 323.02,135.26 322.6,135.27 322.17,135.27 321.75,135.28 321.32,135.29 320.9,135.29 320.47,135.29 320.05,135.3 319.62,135.3 319.2,135.3 318.77,135.31 318.35,135.31 317.92,135.32 317.5,135.32 317.07,135.32 316.65,135.33 316.22,135.33 315.8,135.33 315.37,135.34 314.95,135.34 314.52,135.34 314.1,135.35 313.67,135.35 313.25,135.35 312.82,135.36 312.4,135.36 311.97,135.36 311.55,135.37 311.12,135.37 310.7,135.37 310.27,135.38 309.85,135.38 309.42,135.38 308.99,135.39 308.57,135.39 308.14,135.39 307.72,135.39 307.29,135.4 306.87,135.4 306.44,135.4 306.02,135.41 305.59,135.41 305.17,135.41 304.74,135.41 304.32,135.42 303.89,135.42 303.47,135.42 303.04,135.42 302.62,135.42 302.19,135.42 301.77,135.42 301.34,135.43 300.92,135.43 300.49,135.43 300.07,135.43 299.64,135.43 299.22,135.43 298.79,135.43 298.37,135.44 297.94,135.44 297.52,135.44 297.09,135.44 296.67,135.44 296.24,135.44 295.82,135.44 295.39,135.45 294.97,135.45 294.54,135.45 294.11,135.45 293.69,135.45 293.26,135.45 292.84,135.45 292.41,135.45 291.99,135.46 291.56,135.46 291.14,135.46 290.71,135.46 290.29,135.46 289.86,135.46 289.44,135.46 289.01,135.46 288.59,135.47 288.16,135.47 287.74,135.47 287.31,135.47 286.89,135.47 286.46,135.47 286.04,135.47 285.61,135.47 285.19,135.47 284.76,135.47 284.34,135.47 283.91,135.47 283.49,135.47 283.06,135.47 282.64,135.48 282.21,135.48 281.79,135.48 281.36,135.48 280.94,135.48 280.51,135.48 280.09,135.48 279.66,135.48 279.23,135.48 278.81,135.48 278.38,135.48 277.96,135.48 277.53,135.48 277.11,135.48 276.68,135.48 276.26,135.48 275.83,135.48 275.41,135.48 274.98,135.49 274.56,135.49 274.13,135.49 273.71,135.49 273.28,135.49 272.86,135.49 272.43,135.49 272.01,135.49 271.58,135.49 271.16,135.49 270.73,135.49 270.31,135.49 269.88,135.49 269.46,135.49 269.03,135.49 268.61,135.49 268.18,135.49 267.76,135.49 267.33,135.49 266.91,135.49 266.48,135.49 266.06,135.49 265.63,135.49 265.21,135.49 264.78,135.49 264.35,135.49 263.93,135.49 263.5,135.49 263.08,135.49 262.65,135.5 262.23,135.5 261.8,135.5 261.38,135.5 260.95,135.5 260.53,135.5 260.1,135.5 259.68,135.5 259.25,135.5 258.83,135.5 258.4,135.5 257.98,135.5 257.55,135.5 257.13,135.5 256.7,135.5 256.28,135.5 255.85,135.5 255.43,135.5 255,135.5 254.58,135.5 254.15,135.5 253.73,135.5 253.3,135.5 252.88,135.5 252.45,135.5 252.03,135.5 251.6,135.5 251.18,135.5 250.75,135.5 250.33,135.5 249.9,135.5 249.47,135.5 249.05,135.5 248.62,135.5 248.2,135.5 247.77,135.5 247.35,135.5 246.92,135.5 246.5,135.5 246.07,135.5 245.65,135.5 245.22,135.5 244.8,135.5 244.37,135.5 243.95,135.5 243.52,135.5 243.1,135.5 242.67,135.5 242.25,135.5 241.82,135.5 241.4,135.5 240.97,135.5 240.55,135.5 240.12,135.5 239.7,135.5 239.27,135.5 238.85,135.5 238.42,135.5 238,135.5 237.57,135.5 237.15,135.5 236.72,135.5 236.3,135.5 235.87,135.5 235.45,135.5 235.02,135.5 234.59,135.5 234.17,135.5 233.74,135.5 233.32,135.5 232.89,135.5 232.47,135.5 232.04,135.5 231.62,135.5 231.19,135.5 230.77,135.5 230.34,135.5 229.92,135.5 229.49,135.5 229.07,135.5 228.64,135.5 228.22,135.5 227.79,135.5 227.37,135.5 226.94,135.5 226.52,135.5 226.09,135.5 225.67,135.5 225.24,135.5 224.82,135.5 224.39,135.5 223.97,135.5 223.54,135.5 223.12,135.5 222.69,135.5 222.27,135.5 221.84,135.5 221.42,135.5 220.99,135.5 220.57,135.5 220.14,135.5 219.71,135.5 219.29,135.5 218.86,135.5 218.44,135.5 218.01,135.5 217.59,135.5 217.16,135.5 216.74,135.51 216.31,135.51 215.89,135.51 215.46,135.51 215.04,135.51 214.61,135.51 214.19,135.51 213.76,135.51 213.34,135.51 212.91,135.51 212.49,135.51 212.06,135.51 211.64,135.51 211.21,135.51 210.79,135.51 210.36,135.51 209.94,135.51 209.51,135.51 209.09,135.51 208.66,135.51 208.24,135.51 207.81,135.51 207.39,135.51 206.96,135.51 206.54,135.51 206.11,135.51 205.69,135.51 205.26,135.51 204.83,135.51 204.41,135.51 203.98,135.51 203.56,135.51 203.13,135.51 202.71,135.51 202.28,135.51 201.86,135.51 201.43,135.51 201.01,135.51 200.58,135.51 200.16,135.51 199.73,135.51 199.31,135.51 198.88,135.51 198.46,135.51 198.03,135.51 197.61,135.51 197.18,135.51 196.76,135.51 196.33,135.51 195.91,135.51 195.48,135.51 195.06,135.51 194.63,135.51 194.21,135.51 193.78,135.51 193.36,135.51 192.93,135.51 192.51,135.51 192.08,135.51 191.66,135.51 191.23,135.51 190.81,135.51 190.38,135.51 189.95,135.51 189.53,135.51 189.1,135.51 188.68,135.51 188.25,135.51 187.83,135.51 187.4,135.51 186.98,135.51 186.55,135.51 186.13,135.51 185.7,135.51 185.28,135.51 184.85,135.51 184.43,135.51 184,135.51 183.58,135.51 183.15,135.51 182.73,135.51 182.3,135.51 181.88,135.51 181.45,135.51 181.03,135.51 180.6,135.51 180.18,135.51 179.75,135.51 179.33,135.51 178.9,135.51 178.48,135.51 178.05,135.51 177.63,135.51 177.2,135.51 176.78,135.51 176.35,135.51 175.93,135.51 175.5,135.51 175.07,135.51 174.65,135.51 174.22,135.51 173.8,135.51 173.37,135.51 172.95,135.51 172.52,135.51 172.1,135.51 171.67,135.51 171.25,135.51 170.82,135.51 170.4,135.51 169.97,135.51 169.55,135.51 169.12,135.51 168.7,135.51 168.27,135.51 167.85,135.51 167.42,135.51 167,135.51 166.57,135.51 166.15,135.51 165.72,135.51 165.3,135.51 164.87,135.51 164.45,135.51 164.02,135.51 163.6,135.51 163.17,135.51 162.75,135.51 162.32,135.51 161.9,135.51 161.47,135.51 161.05,135.51 160.62,135.51 160.19,135.51 159.77,135.51 159.34,135.51 158.92,135.51 158.49,135.51 158.07,135.51 157.64,135.51 157.22,135.51 156.79,135.51 156.37,135.51 155.94,135.51 155.52,135.51 155.09,135.51 154.67,135.51 154.24,135.51 153.82,135.51 153.39,135.51 152.97,135.51 152.54,135.51 152.12,135.51 151.69,135.51 151.27,135.51 150.84,135.51 150.42,135.51 149.99,135.51 149.57,135.51 149.14,135.51 148.72,135.51 148.29,135.51 147.87,135.51 147.44,135.51 147.02,135.51 146.59,135.51 146.17,135.51 145.74,135.51 145.31,135.51 144.89,135.51 144.46,135.51 144.04,135.51 143.61,135.51 143.19,135.51 142.76,135.51 142.34,135.51 141.91,135.51 141.49,135.51 141.06,135.51 140.64,135.51 140.21,135.51 139.79,135.51 139.36,135.51 138.94,135.51 138.51,135.51 138.09,135.51 137.66,135.51 137.24,135.51 136.81,135.51 136.39,135.51 135.96,135.51 135.54,135.51 135.11,135.51 134.69,135.51 134.26,135.51 133.84,135.51 133.41,135.51 132.99,135.51 132.56,135.51 132.14,135.51 131.71,135.51 131.29,135.51 130.86,135.51 130.43,135.51 130.01,135.51 129.58,135.51 129.16,135.51 128.73,135.51 128.31,135.51 127.88,135.51 127.46,135.51 127.03,135.51 126.61,135.51 126.18,135.51 125.76,135.51 125.33,135.51 124.91,135.51 124.48,135.51 124.06,135.51 123.63,135.51 123.21,135.51 122.78,135.51 122.36,135.51 121.93,135.51 121.51,135.51 121.08,135.51 120.66,135.51 120.23,135.51 119.81,135.51 119.38,135.51 118.96,135.51 118.53,135.51 118.11,135.51 117.68,135.51 117.26,135.51 116.83,135.51 116.41,135.51 115.98,135.51 115.55,135.51 115.13,135.51 114.7,135.51 114.28,135.51 113.85,135.51 113.43,135.51 113,135.51 112.58,135.51 112.15,135.51 111.73,135.51 111.3,135.51 110.88,135.51 110.45,135.51 110.03,135.51 109.6,135.51 109.18,135.51 108.75,135.51 108.33,135.51 107.9,135.51 107.48,135.51 107.05,135.51 106.63,135.51 106.2,135.51 105.78,135.51 105.35,135.51 104.93,135.51 104.5,135.51 104.08,135.51 103.65,135.51 103.23,135.51 102.8,135.51 102.38,135.51 101.95,135.51 101.52,135.51 101.1,135.51 100.67,135.51 100.25,135.51 99.82,135.51 99.4,135.51 98.97,135.51 98.55,135.51 98.12,135.51 97.7,135.51 97.27,135.51 96.85,135.51 96.42,135.51 96,135.51 95.57,135.51 95.15,135.51 94.72,135.51"/>
</g>
<g fill="none" stroke-width="1.25">
<polyline fill="none" points="519.44,135.5 519.02,135.5 518.59,135.5 518.17,135.5 517.74,135.5 517.31,135.5 516.89,135.5 516.46,135.5 516.04,135.5 515.61,135.5 515.19,135.5 514.76,135.5 514.34,135.5 513.91,135.5 513.49,135.5 513.06,135.5 512.64,135.5 512.21,135.5 511.79,135.5 511.36,135.5 510.94,135.5 510.51,135.5 510.09,135.5 509.66,135.5 509.24,135.5 508.81,135.5 508.39,135.5 507.96,135.5 507.54,135.5 507.11,135.5 506.69,135.49 506.26,135.49 505.84,135.49 505.41,135.49 504.99,135.49 504.56,135.49 504.14,135.49 503.71,135.49 503.29,135.49 502.86,135.49 502.43,135.49 502.01,135.49 501.58,135.49 501.16,135.49 500.73,135.48 500.31,135.48 499.88,135.48 499.46,135.48 499.03,135.48 498.61,135.48 498.18,135.48 497.76,135.47 497.33,135.47 496.91,135.47 496.48,135.47 496.06,135.46 495.63,135.46 495.21,135.46 494.78,135.46 494.36,135.45 493.93,135.45 493.51,135.45 493.08,135.44 492.66,135.44 492.23,135.44 491.81,135.44 491.38,135.43 490.96,135.43 490.53,135.43 490.11,135.42 489.68,135.42 489.26,135.41 488.83,135.4 488.41,135.4 487.98,135.39 487.55,135.38 487.13,135.37 486.7,135.36 486.28,135.36 485.85,135.35 485.43,135.34 485,135.33 484.58,135.32 484.15,135.31 483.73,135.3 483.3,135.28 482.88,135.27 482.45,135.26 482.03,135.25 481.6,135.24 481.18,135.23 480.75,135.21 480.33,135.2 479.9,135.19 479.48,135.16 479.05,135.14 478.63,135.12 478.2,135.09 477.78,135.07 477.35,135.04 476.93,135.02 476.5,134.99 476.08,134.96 475.65,134.93 475.23,134.91 474.8,134.88 474.38,134.83 473.95,134.79 473.53,134.74 473.1,134.7 472.67,134.65 472.25,134.6 471.82,134.55 471.4,134.5 470.97,134.45 470.55,134.4 470.12,134.35 469.7,134.29 469.27,134.21 468.85,134.13 468.42,134.04 468,133.95 467.57,133.86 467.15,133.77 466.72,133.67 466.3,133.58 465.87,133.48 465.45,133.38 465.02,133.28 464.6,133.16 464.17,133.01 463.75,132.85 463.32,132.69 462.9,132.52 462.47,132.35 462.05,132.17 461.62,131.99 461.2,131.8 460.77,131.61 460.35,131.42 459.92,131.22 459.5,130.99 459.07,130.72 458.65,130.44 458.22,130.16 457.79,129.87 457.37,129.59 456.94,129.28 456.52,128.93 456.09,128.57 455.67,128.2 455.24,127.82 454.82,127.43 454.39,127.02 453.97,126.56 453.54,126.08 453.12,125.6 452.69,125.11 452.27,124.6 451.84,124.06 451.42,123.47 450.99,122.86 450.57,122.25 450.14,121.62 449.72,120.99 449.29,120.31 448.87,119.58 448.44,118.85 448.02,118.1 447.59,117.34 447.17,116.58 446.74,115.76 446.32,114.91 445.89,114.06 445.47,113.2 445.04,112.33 444.62,111.46 444.19,110.57 443.77,109.66 443.34,108.76 442.91,107.85 442.49,106.95 442.06,106.06 441.64,105.16 441.21,104.27 440.79,103.39 440.36,102.51 439.94,101.63 439.51,100.75 439.09,99.96 438.66,99.21 438.24,98.47 437.81,97.73 437.39,97 436.96,96.37 436.54,95.78 436.11,95.22 435.69,94.67 435.26,94.14 434.84,93.72 434.41,93.34 433.99,92.98 433.56,92.65 433.14,92.33 432.71,92.14 432.29,92 431.86,91.87 431.44,91.76 431.01,91.67 430.59,91.7 430.16,91.77 429.74,91.84 429.31,91.93 428.89,92.02 428.46,92.23 428.03,92.47 427.61,92.71 427.18,92.95 426.76,93.21 426.33,93.57 425.91,93.96 425.48,94.35 425.06,94.74 424.63,95.15 424.21,95.57 423.78,95.99 423.36,96.42 422.93,96.86 422.51,97.31 422.08,97.82 421.66,98.34 421.23,98.85 420.81,99.37 420.38,99.89 419.96,100.41 419.53,100.93 419.11,101.45 418.68,101.97 418.26,102.5 417.83,103.03 417.41,103.56 416.98,104.08 416.56,104.61 416.13,105.13 415.71,105.66 415.28,106.18 414.86,106.7 414.43,107.22 414.01,107.74 413.58,108.23 413.15,108.72 412.73,109.2 412.3,109.69 411.88,110.17 411.45,110.65 411.03,111.13 410.6,111.6 410.18,112.07 409.75,112.53 409.33,112.96 408.9,113.39 408.48,113.82 408.05,114.24 407.63,114.66 407.2,115.08 406.78,115.49 406.35,115.9 405.93,116.31 405.5,116.7 405.08,117.07 404.65,117.43 404.23,117.79 403.8,118.15 403.38,118.51 402.95,118.86 402.53,119.21 402.1,119.56 401.68,119.9 401.25,120.22 400.83,120.53 400.4,120.83 399.98,121.13 399.55,121.43 399.13,121.72 398.7,122.01 398.27,122.3 397.85,122.59 397.42,122.87 397,123.14 396.57,123.39 396.15,123.64 395.72,123.88 395.3,124.13 394.87,124.37 394.45,124.61 394.02,124.85 393.6,125.08 393.17,125.32 392.75,125.53 392.32,125.73 391.9,125.93 391.47,126.13 391.05,126.33 390.62,126.53 390.2,126.72 389.77,126.92 389.35,127.11 388.92,127.3 388.5,127.47 388.07,127.64 387.65,127.8 387.22,127.96 386.8,128.12 386.37,128.28 385.95,128.44 385.52,128.6 385.1,128.75 384.67,128.91 384.25,129.04 383.82,129.17 383.39,129.3 382.97,129.44 382.54,129.57 382.12,129.7 381.69,129.83 381.27,129.96 380.84,130.09 380.42,130.22 379.99,130.32 379.57,130.43 379.14,130.53 378.72,130.63 378.29,130.73 377.87,130.83 377.44,130.92 377.02,131.02 376.59,131.12 376.17,131.21 375.74,131.31 375.32,131.4 374.89,131.49 374.47,131.58 374.04,131.67 373.62,131.76 373.19,131.85 372.77,131.94 372.34,132.02 371.92,132.1 371.49,132.17 371.07,132.23 370.64,132.3 370.22,132.36 369.79,132.42 369.37,132.49 368.94,132.55 368.51,132.61 368.09,132.67 367.66,132.73 367.24,132.79 366.81,132.85 366.39,132.91 365.96,132.97 365.54,133.03 365.11,133.09 364.69,133.15 364.26,133.2 363.84,133.26 363.41,133.31 362.99,133.35 362.56,133.4 362.14,133.44 361.71,133.48 361.29,133.52 360.86,133.56 360.44,133.6 360.01,133.64 359.59,133.68 359.16,133.72 358.74,133.76 358.31,133.8 357.89,133.84 357.46,133.88 357.04,133.91 356.61,133.95 356.19,133.99 355.76,134.02 355.34,134.06 354.91,134.09 354.49,134.12 354.06,134.15 353.63,134.17 353.21,134.2 352.78,134.23 352.36,134.25 351.93,134.28 351.51,134.31 351.08,134.33 350.66,134.36 350.23,134.38 349.81,134.41 349.38,134.43 348.96,134.46 348.53,134.48 348.11,134.51 347.68,134.53 347.26,134.55 346.83,134.58 346.41,134.6 345.98,134.61 345.56,134.63 345.13,134.65 344.71,134.67 344.28,134.68 343.86,134.7 343.43,134.72 343.01,134.73 342.58,134.75 342.16,134.77 341.73,134.78 341.31,134.8 340.88,134.82 340.46,134.83 340.03,134.85 339.61,134.86 339.18,134.88 338.75,134.9 338.33,134.91 337.9,134.92 337.48,134.93 337.05,134.94 336.63,134.95 336.2,134.96 335.78,134.97 335.35,134.99 334.93,135 334.5,135.01 334.08,135.02 333.65,135.02 333.23,135.03 332.8,135.04 332.38,135.05 331.95,135.06 331.53,135.07 331.1,135.08 330.68,135.09 330.25,135.1 329.83,135.11 329.4,135.12 328.98,135.13 328.55,135.14 328.13,135.14 327.7,135.15 327.28,135.16 326.85,135.17 326.43,135.18 326,135.19 325.58,135.19 325.15,135.2 324.73,135.21 324.3,135.22 323.87,135.22 323.45,135.23 323.02,135.24 322.6,135.25 322.17,135.25 321.75,135.26 321.32,135.26 320.9,135.26 320.47,135.27 320.05,135.27 319.62,135.28 319.2,135.28 318.77,135.29 318.35,135.29 317.92,135.29 317.5,135.3 317.07,135.3 316.65,135.31 316.22,135.31 315.8,135.31 315.37,135.32 314.95,135.32 314.52,135.33 314.1,135.33 313.67,135.33 313.25,135.34 312.82,135.34 312.4,135.35 311.97,135.35 311.55,135.35 311.12,135.36 310.7,135.36 310.27,135.36 309.85,135.37 309.42,135.37 308.99,135.37 308.57,135.38 308.14,135.38 307.72,135.38 307.29,135.39 306.87,135.39 306.44,135.39 306.02,135.39 305.59,135.4 305.17,135.4 304.74,135.4 304.32,135.4 303.89,135.4 303.47,135.41 303.04,135.41 302.62,135.41 302.19,135.41 301.77,135.41 301.34,135.41 300.92,135.42 300.49,135.42 300.07,135.42 299.64,135.42 299.22,135.42 298.79,135.43 298.37,135.43 297.94,135.43 297.52,135.43 297.09,135.43 296.67,135.43 296.24,135.44 295.82,135.44 295.39,135.44 294.97,135.44 294.54,135.44 294.11,135.44 293.69,135.45 293.26,135.45 292.84,135.45 292.41,135.45 291.99,135.45 291.56,135.45 291.14,135.45 290.71,135.46 290.29,135.46 289.86,135.46 289.44,135.46 289.01,135.46 288.59,135.46 288.16,135.46 287.74,135.46 287.31,135.46 286.89,135.46 286.46,135.47 286.04,135.47 285.61,135.47 285.19,135.47 284.76,135.47 284.34,135.47 283.91,135.47 283.49,135.47 283.06,135.47 282.64,135.47 282.21,135.47 281.79,135.47 281.36,135.47 280.94,135.47 280.51,135.48 280.09,135.48 279.66,135.48 279.23,135.48 278.81,135.48 278.38,135.48 277.96,135.48 277.53,135.48 277.11,135.48 276.68,135.48 276.26,135.48 275.83,135.48 275.41,135.48 274.98,135.48 274.56,135.48 274.13,135.48 273.71,135.49 273.28,135.49 272.86,135.49 272.43,135.49 272.01,135.49 271.58,135.49 271.16,135.49 270.73,135.49 270.31,135.49 269.88,135.49 269.46,135.49 269.03,135.49 268.61,135.49 268.18,135.49 267.76,135.49 267.33,135.49 266.91,135.49 266.48,135.49 266.06,135.49 265.63,135.49 265.21,135.49 264.78,135.49 264.35,135.49 263.93,135.49 263.5,135.49 263.08,135.49 262.65,135.49 262.23,135.49 261.8,135.49 261.38,135.49 260.95,135.49 260.53,135.49 260.1,135.49 259.68,135.49 259.25,135.5 258.83,135.5 258.4,135.5 257.98,135.5 257.55,135.5 257.13,135.5 256.7,135.5 256.28,135.5 255.85,135.5 255.43,135.5 255,135.5 254.58,135.5 254.15,135.5 253.73,135.5 253.3,135.5 252.88,135.5 252.45,135.5 252.03,135.5 251.6,135.5 251.18,135.5 250.75,135.5 250.33,135.5 249.9,135.5 249.47,135.5 249.05,135.5 248.62,135.5 248.2,135.5 247.77,135.5 247.35,135.5 246.92,135.5 246.5,135.5 246.07,135.5 245.65,135.5 245.22,135.5 244.8,135.5 244.37,135.5 243.95,135.5 243.52,135.5 243.1,135.5 242.67,135.5 242.25,135.5 241.82,135.5 241.4,135.5 240.97,135.5 240.55,135.5 240.12,135.5 239.7,135.5 239.27,135.5 238.85,135.5 238.42,135.5 238,135.5 237.57,135.5 237.15,135.5 236.72,135.5 236.3,135.5 235.87,135.5 235.45,135.5 235.02,135.5 234.59,135.5 234.17,135.5 233.74,135.5 233.32,135.5 232.89,135.5 232.47,135.5 232.04,135.5 231.62,135.5 231.19,135.5 230.77,135.5 230.34,135.5 229.92,135.5 229.49,135.5 229.07,135.5 228.64,135.5 228.22,135.5 227.79,135.5 227.37,135.5 226.94,135.5 226.52,135.5 226.09,135.5 225.67,135.5 225.24,135.5 224.82,135.5 224.39,135.5 223.97,135.5 223.54,135.5 223.12,135.5 222.69,135.5 222.27,135.5 221.84,135.5 221.42,135.5 220.99,135.5 220.57,135.5 220.14,135.5 219.71,135.5 219.29,135.5 218.86,135.5 218.44,135.5 218.01,135.5 217.59,135.5 217.16,135.51 216.74,135.51 216.31,135.51 215.89,135.51 215.46,135.51 215.04,135.51 214.61,135.51 214.19,135.51 213.76,135.51 213.34,135.51 212.91,135.51 212.49,135.51 212.06,135.51 211.64,135.51 211.21,135.51 210.79,135.51 210.36,135.51 209.94,135.51 209.51,135.51 209.09,135.51 208.66,135.51 208.24,135.51 207.81,135.51 207.39,135.51 206.96,135.51 206.54,135.51 206.11,135.51 205.69,135.51 205.26,135.51 204.83,135.51 204.41,135.51 203.98,135.51 203.56,135.51 203.13,135.51 202.71,135.51 202.28,135.51 201.86,135.51 201.43,135.51 201.01,135.51 200.58,135.51 200.16,135.51 199.73,135.51 199.31,135.51 198.88,135.51 198.46,135.51 198.03,135.51 197.61,135.51 197.18,135.51 196.76,135.51 196.33,135.51 195.91,135.51 195.48,135.51 195.06,135.51 194.63,135.51 194.21,135.51 193.78,135.51 193.36,135.51 192.93,135.51 192.51,135.51 192.08,135.51 191.66,135.51 191.23,135.51 190.81,135.51 190.38,135.51 189.95,135.51 189.53,135.51 189.1,135.51 188.68,135.51 188.25,135.51 187.83,135.51 187.4,135.51 186.98,135.51 186.55,135.51 186.13,135.51 185.7,135.51 185.28,135.51 184.85,135.51 184.43,135.51 184,135.51 183.58,135.51 183.15,135.51 182.73,135.51 182.3,135.51 181.88,135.51 181.45,135.51 181.03,135.51 180.6,135.51 180.18,135.51 179.75,135.51 179.33,135.51 178.9,135.51 178.48,135.51 178.05,135.51 177.63,135.51 177.2,135.51 176.78,135.51 176.35,135.51 175.93,135.51 175.5,135.51 175.07,135.51 174.65,135.51 174.22,135.51 173.8,135.51 173.37,135.51 172.95,135.51 172.52,135.51 172.1,135.51 171.67,135.51 171.25,135.51 170.82,135.51 170.4,135.51 169.97,135.51 169.55,135.51 169.12,135.51 168.7,135.51 168.27,135.51 167.85,135.51 167.42,135.51 167,135.51 166.57,135.51 166.15,135.51 165.72,135.51 165.3,135.51 164.87,135.51 164.45,135.51 164.02,135.51 163.6,135.51 163.17,135.51 162.75,135.51 162.32,135.51 161.9,135.51 161.47,135.51 161.05,135.51 160.62,135.51 160.19,135.51 159.77,135.51 159.34,135.51 158.92,135.51 158.49,135.51 158.07,135.51 157.64,135.51 157.22,135.51 156.79,135.51 156.37,135.51 155.94,135.51 155.52,135.51 155.09,135.51 154.67,135.51 154.24,135.51 153.82,135.51 153.39,135.51 152.97,135.51 152.54,135.51 152.12,135.51 151.69,135.51 151.27,135.51 150.84,135.51 150.42,135.51 149.99,135.51 149.57,135.51 149.14,135.51 148.72,135.51 148.29,135.51 147.87,135.51 147.44,135.51 147.02,135.51 146.59,135.51 146.17,135.51 145.74,135.51 145.31,135.51 144.89,135.51 144.46,135.51 144.04,135.51 143.61,135.51 143.19,135.51 142.76,135.51 142.34,135.51 141.91,135.51 141.49,135.51 141.06,135.51 140.64,135.51 140.21,135.51 139.79,135.51 139.36,135.51 138.94,135.51 138.51,135.51 138.09,135.51 137.66,135.51 137.24,135.51 136.81,135.51 136.39,135.51 135.96,135.51 135.54,135.51 135.11,135.51 134.69,135.51 134.26,135.51 133.84,135.51 133.41,135.51 132.99,135.51 132.56,135.51 132.14,135.51 131.71,135.51 131.29,135.51 130.86,135.51 130.43,135.51 130.01,135.51 129.58,135.51 129.16,135.51 128.73,135.51 128.31,135.51 127.88,135.51 127.46,135.51 127.03,135.51 126.61,135.51 126.18,135.51 125.76,135.51 125.33,135.51 124.91,135.51 124.48,135.51 124.06,135.51 123.63,135.51 123.21,135.51 122.78,135.51 122.36,135.51 121.93,135.51 121.51,135.51 121.08,135.51 120.66,135.51 120.23,135.51 119.81,135.51 119.38,135.51 118.96,135.51 118.53,135.51 118.11,135.51 117.68,135.51 117.26,135.51 116.83,135.51 116.41,135.51 115.98,135.51 115.55,135.51 115.13,135.51 114.7,135.51 114.28,135.51 113.85,135.51 113.43,135.51 113,135.51 112.58,135.51 112.15,135.51 111.73,135.51 111.3,135.51 110.88,135.51 110.45,135.51 110.03,135.51 109.6,135.51 109.18,135.51 108.75,135.51 108.33,135.51 107.9,135.51 107.48,135.51 107.05,135.51 106.63,135.51 106.2,135.51 105.78,135.51 105.35,135.51 104.93,135.51 104.5,135.51 104.08,135.51 103.65,135.51 103.23,135.51 102.8,135.51 102.38,135.51 101.95,135.51 101.52,135.51 101.1,135.51 100.67,135.51 100.25,135.51 99.82,135.51 99.4,135.51 98.97,135.51 98.55,135.51 98.12,135.51 97.7,135.51 97.27,135.51 96.85,135.51 96.42,135.51 96,135.51 95.57,135.51 95.15,135.51 94.72,135.51"/>
</g>
</g>
<g clip-path="url(#c0)">
<g fill="none" stroke-linecap="butt" stroke-width="1.25">
<path d="M67.75,135.51l0,-112.92"/>
<path d="M67.75,135.51l3.75,0M67.75,129.86l3.75,0M67.75,124.21l3.75,0M67.75,118.57l3.75,0M67.75,112.92l3.75,0M67.75,107.28l3.75,0M67.75,101.63l3.75,0M67.75,95.98l3.75,0M67.75,90.34l3.75,0M67.75,84.69l3.75,0M67.75,79.05l3.75,0M67.75,73.4l3.75,0M67.75,67.75l3.75,0M67.75,62.11l3.75,0M67.75,56.46l3.75,0M67.75,50.81l3.75,0M67.75,45.17l3.75,0M67.75,39.52l3.75,0M67.75,33.88l3.75,0M67.75,28.23l3.75,0M67.75,22.58l3.75,0"/>
<path d="M67.75,135.51l7.5,0M67.75,107.28l7.5,0M67.75,79.05l7.5,0M67.75,50.81l7.5,0M67.75,22.58l7.5,0"/>
</g>
<g fill="none" stroke-width="1">
<g transform="matrix(0 -1 1 0 44.05 146.94)">
<path d="m9.06,-2.53l-0.42,0c-0.75,1.62,-1.4,1.98,-3.54,1.98l-0.41,0c-0.72,0,-1.32,-0.06,-1.45,-0.17c-0.09,-0.06,-0.12,-0.2,-0.12,-0.48l0,-3.7l2.31,0c1.23,0,1.45,0.2,1.65,1.44l0.35,0l0,-3.48l-0.35,0c-0.2,1.23,-0.44,1.42,-1.65,1.42l-2.31,0l0,-3.33c0,-0.42,0.09,-0.51,0.49,-0.51l2.02,0c1.7,0,2.02,0.22,2.28,1.57l0.37,0l-0.04,-2.15l-7.97,0l0,0.28c1.11,0.09,1.3,0.29,1.3,1.35l0,6.66c0,1.06,-0.21,1.27,-1.3,1.35l0,0.28l8.1,0l0.67,-2.53m4.16,2.53l0,-0.22c-0.96,-0.06,-1.12,-0.21,-1.12,-1.03l0,-8.95l-0.06,-0.03c-0.78,0.26,-1.35,0.41,-2.39,0.66l0,0.24l0.09,0c0.17,-0.01,0.35,-0.03,0.47,-0.03c0.48,0,0.63,0.21,0.63,0.92l0,7.15c0,0.81,-0.21,1,-1.15,1.08l0,0.22l3.54,0m6.67,-2.35l-0.24,-0.1c-0.72,1.14,-1.37,1.57,-2.32,1.57c-0.82,0,-1.45,-0.39,-1.89,-1.2c-0.3,-0.59,-0.42,-1.11,-0.45,-2.07l4.62,0c-0.12,-0.97,-0.27,-1.41,-0.65,-1.89c-0.45,-0.54,-1.14,-0.85,-1.92,-0.85c-1.86,0,-3.13,1.5,-3.13,3.69c0,2.07,1.08,3.36,2.8,3.36c1.44,0,2.55,-0.88,3.18,-2.5m-1.81,-2.28l-3.06,0c0.17,-1.19,0.67,-1.72,1.59,-1.72c0.91,0,1.27,0.42,1.47,1.72m8.29,2.43l-0.21,-0.14c-0.72,1.05,-1.26,1.41,-2.12,1.41c-1.38,0,-2.32,-1.2,-2.32,-2.92c0,-1.56,0.82,-2.61,2.04,-2.61c0.54,0,0.73,0.16,0.88,0.72l0.09,0.33c0.12,0.43,0.39,0.69,0.72,0.69c0.39,0,0.71,-0.28,0.71,-0.63c0,-0.84,-1.05,-1.55,-2.31,-1.55c-0.7,0,-1.42,0.27,-2.02,0.77c-0.81,0.67,-1.26,1.71,-1.26,2.95c0,1.93,1.18,3.33,2.85,3.33c0.65,0,1.21,-0.21,1.72,-0.63c0.45,-0.36,0.75,-0.8,1.23,-1.72m4.66,1.21l-0.2,-0.16c-0.33,0.39,-0.57,0.52,-0.9,0.52c-0.56,0,-0.78,-0.39,-0.78,-1.35l0,-4.29l1.52,0l0,-0.48l-1.52,0l0,-1.74c0,-0.15,-0.03,-0.2,-0.1,-0.2c-0.09,0.15,-0.2,0.28,-0.3,0.42c-0.55,0.82,-1.06,1.38,-1.45,1.6c-0.17,0.1,-0.25,0.2,-0.25,0.28c0,0.05,0.01,0.07,0.06,0.1l0.8,0l0,4.52c0,1.26,0.45,1.9,1.32,1.9c0.75,0,1.32,-0.36,1.81,-1.14m5.01,-5.11c0,-0.5,-0.32,-0.8,-0.82,-0.8c-0.63,0,-1.07,0.35,-1.8,1.41l0,-1.38l-0.07,-0.03c-0.8,0.33,-1.33,0.52,-2.22,0.81l0,0.24c0.21,-0.05,0.35,-0.06,0.52,-0.06c0.37,0,0.51,0.24,0.51,0.9l0,3.75c0,0.75,-0.11,0.85,-1.07,1.03l0,0.22l3.6,0l0,-0.22c-1.02,-0.05,-1.27,-0.27,-1.27,-1.12l0,-3.37c0,-0.48,0.65,-1.23,1.05,-1.23c0.09,0,0.22,0.07,0.39,0.22c0.24,0.21,0.4,0.3,0.6,0.3c0.36,0,0.59,-0.25,0.59,-0.67m4.06,6.1l0,-0.22c-0.99,-0.07,-1.11,-0.22,-1.11,-1.3l0,-5.32l-0.06,-0.05l-2.32,0.82l0,0.22l0.12,-0.01c0.18,-0.03,0.37,-0.05,0.51,-0.05c0.36,0,0.5,0.24,0.5,0.9l0,3.48c0,1.08,-0.15,1.25,-1.18,1.3l0,0.22l3.55,0m-0.97,-8.85c0,-0.42,-0.33,-0.76,-0.77,-0.76c-0.42,0,-0.76,0.34,-0.76,0.76c0,0.44,0.34,0.77,0.76,0.77c0.44,0,0.77,-0.33,0.77,-0.77m7.53,6.65l-0.21,-0.14c-0.72,1.05,-1.26,1.41,-2.12,1.41c-1.38,0,-2.32,-1.2,-2.32,-2.92c0,-1.56,0.82,-2.61,2.04,-2.61c0.54,0,0.73,0.16,0.88,0.72l0.09,0.33c0.12,0.43,0.39,0.69,0.72,0.69c0.39,0,0.71,-0.28,0.71,-0.63c0,-0.84,-1.05,-1.55,-2.31,-1.55c-0.7,0,-1.42,0.27,-2.02,0.77c-0.81,0.67,-1.26,1.71,-1.26,2.95c0,1.93,1.18,3.33,2.85,3.33c0.65,0,1.21,-0.21,1.72,-0.63c0.45,-0.36,0.75,-0.8,1.23,-1.72m12.52,-5.58l-0.04,-2.15l-7.97,0l0,0.28c1.11,0.09,1.3,0.3,1.3,1.35l0,6.5c0,1.25,-0.16,1.44,-1.3,1.52l0,0.28l4.2,0l0,-0.28c-1.15,-0.06,-1.36,-0.27,-1.36,-1.35l0,-3.27l2.17,0c1.22,0,1.47,0.22,1.65,1.44l0.35,0l0,-3.48l-0.35,0c-0.18,1.2,-0.45,1.42,-1.65,1.42l-2.17,0l0,-3.33c0,-0.42,0.07,-0.51,0.48,-0.51l2.04,0c1.7,0,2.02,0.22,2.28,1.57l0.37,0m3.84,7.78l0,-0.22c-0.99,-0.07,-1.11,-0.22,-1.11,-1.3l0,-5.32l-0.06,-0.05l-2.32,0.82l0,0.22l0.12,-0.01c0.18,-0.03,0.37,-0.05,0.51,-0.05c0.36,0,0.5,0.24,0.5,0.9l0,3.48c0,1.08,-0.15,1.25,-1.18,1.3l0,0.22l3.55,0m-0.97,-8.85c0,-0.42,-0.33,-0.76,-0.77,-0.76c-0.42,0,-0.76,0.34,-0.76,0.76c0,0.44,0.34,0.77,0.76,0.77c0.44,0,0.77,-0.33,0.77,-0.77m7.71,6.5l-0.24,-0.1c-0.72,1.14,-1.37,1.57,-2.32,1.57c-0.82,0,-1.45,-0.39,-1.89,-1.2c-0.3,-0.59,-0.42,-1.11,-0.45,-2.07l4.62,0c-0.12,-0.97,-0.27,-1.41,-0.65,-1.89c-0.45,-0.54,-1.14,-0.85,-1.92,-0.85c-1.86,0,-3.13,1.5,-3.13,3.69c0,2.07,1.08,3.36,2.8,3.36c1.44,0,2.55,-0.88,3.18,-2.5m-1.81,-2.28l-3.06,0c0.17,-1.19,0.67,-1.72,1.59,-1.72c0.91,0,1.27,0.42,1.47,1.72m5.97,4.63l0,-0.22c-0.96,-0.06,-1.12,-0.21,-1.12,-1.03l0,-8.95l-0.06,-0.03c-0.78,0.26,-1.35,0.41,-2.39,0.66l0,0.24l0.09,0c0.17,-0.01,0.35,-0.03,0.47,-0.03c0.48,0,0.63,0.21,0.63,0.92l0,7.15c0,0.81,-0.21,1,-1.15,1.08l0,0.22l3.54,0m7.68,-0.63l0,-0.24c-0.27,0.02,-0.3,0.02,-0.34,0.02c-0.54,0,-0.66,-0.17,-0.66,-0.85l0,-8.5l-0.07,-0.03c-0.72,0.26,-1.25,0.41,-2.2,0.66l0,0.24c0.12,-0.01,0.21,-0.01,0.33,-0.01c0.55,0,0.69,0.15,0.69,0.76l0,2.34c-0.57,-0.48,-0.97,-0.65,-1.57,-0.65c-1.72,0,-3.12,1.7,-3.12,3.82c0,1.92,1.12,3.22,2.77,3.22c0.84,0,1.41,-0.3,1.92,-1l0,0.96l0.06,0.05l2.2,-0.78m-2.26,-0.9c0,0.1,-0.1,0.28,-0.25,0.45c-0.27,0.3,-0.65,0.45,-1.08,0.45c-1.25,0,-2.07,-1.2,-2.07,-3.05c0,-1.7,0.73,-2.8,1.87,-2.8c0.79,0,1.53,0.7,1.53,1.5l0,3.45m10.71,3.95c-1.2,-0.95,-1.62,-1.47,-2.02,-2.6c-0.36,-1,-0.52,-2.15,-0.52,-3.65c0,-1.57,0.2,-2.8,0.6,-3.73c0.42,-0.93,0.87,-1.47,1.95,-2.34l-0.13,-0.24c-1.11,0.72,-1.56,1.11,-2.12,1.8c-1.06,1.3,-1.59,2.8,-1.59,4.56c0,1.9,0.55,3.37,1.87,4.9c0.61,0.72,1,1.05,1.78,1.53l0.18,-0.24m8.01,-2.42l0,-0.22c-0.66,-0.05,-1.12,-0.33,-1.75,-1.1l-2.3,-2.91l0.43,-0.4c1.07,-0.99,2,-1.68,2.43,-1.8c0.22,-0.06,0.44,-0.09,0.69,-0.09l0.12,0l0,-0.22l-3.06,0l0,0.21c0.59,0.01,0.75,0.07,0.75,0.28c0,0.12,-0.13,0.33,-0.34,0.51l-2.05,1.83l0,-6.3l-0.06,-0.03l-1.87,0.54l-0.45,0.12l0,0.24c0.2,-0.01,0.33,-0.03,0.48,-0.03c0.5,0,0.65,0.2,0.65,0.92l0,7.23c0,0.78,-0.05,0.82,-1.12,1l0,0.22l3.51,0l0,-0.22l-0.3,-0.02c-0.6,-0.03,-0.82,-0.24,-0.82,-0.76l0,-2.76l2.1,2.81l0.05,0.06c0.03,0.05,0.06,0.09,0.1,0.13c0.12,0.15,0.17,0.24,0.17,0.32c0,0.13,-0.13,0.22,-0.32,0.22l-0.28,0l0,0.22l3.27,0m9.78,-9.65l0,-0.28l-3.07,0l0,0.28c0.82,0.05,1.1,0.21,1.1,0.63c0,0.24,-0.1,0.64,-0.29,1.09l-2.2,5.5l-2.26,-5.07c-0.5,-1.1,-0.62,-1.44,-0.62,-1.67c0,-0.28,0.21,-0.43,0.69,-0.46c0.06,0,0.22,-0.02,0.43,-0.03l0,-0.28l-3.99,0l0,0.28c0.73,0.03,0.94,0.24,1.59,1.57l3.69,8.24l0.22,0l3.33,-8.42c0.5,-1.18,0.66,-1.35,1.38,-1.4m4.77,-0.49l-1,0l-3.43,10.35l1.02,0l3.42,-10.35m6.04,7.93l-0.21,-0.14c-0.72,1.05,-1.26,1.41,-2.12,1.41c-1.38,0,-2.32,-1.2,-2.32,-2.92c0,-1.56,0.82,-2.61,2.04,-2.61c0.54,0,0.73,0.16,0.88,0.72l0.09,0.33c0.12,0.43,0.39,0.69,0.72,0.69c0.39,0,0.71,-0.28,0.71,-0.63c0,-0.84,-1.05,-1.55,-2.31,-1.55c-0.7,0,-1.42,0.27,-2.02,0.77c-0.81,0.67,-1.26,1.71,-1.26,2.95c0,1.93,1.18,3.33,2.85,3.33c0.65,0,1.21,-0.21,1.72,-0.63c0.45,-0.36,0.75,-0.8,1.23,-1.72m12.1,2.2l0,-0.22l-0.39,-0.03c-0.45,-0.03,-0.65,-0.3,-0.65,-0.89l0,-3.1c0,-1.77,-0.58,-2.67,-1.74,-2.67c-0.87,0,-1.64,0.39,-2.45,1.27c-0.27,-0.87,-0.78,-1.27,-1.59,-1.27c-0.66,0,-1.08,0.21,-2.32,1.17l0,-1.14l-0.11,-0.03c-0.76,0.28,-1.27,0.45,-2.1,0.67l0,0.27c0.2,-0.04,0.32,-0.06,0.48,-0.06c0.39,0,0.52,0.24,0.52,0.96l0,3.8c0,0.81,-0.21,1.03,-1.05,1.05l0,0.22l3.33,0l0,-0.22c-0.8,-0.03,-1.02,-0.2,-1.02,-0.78l0,-4.23c0,0,0.12,-0.18,0.22,-0.29c0.37,-0.35,1.02,-0.61,1.55,-0.61c0.66,0,0.99,0.53,0.99,1.59l0,3.25c0,0.84,-0.16,1.01,-1.02,1.07l0,0.22l3.36,0l0,-0.22c-0.85,-0.02,-1.08,-0.27,-1.08,-1.2l0,-3.78c0.45,-0.66,0.94,-0.93,1.63,-0.93c0.85,0,1.12,0.41,1.12,1.66l0,3.17c0,0.85,-0.12,0.97,-0.99,1.08l0,0.22l3.29,0m4.32,-3.7c0,-1.92,-0.55,-3.37,-1.87,-4.9c-0.62,-0.72,-1,-1.05,-1.78,-1.53l-0.18,0.24c1.2,0.95,1.61,1.47,2.02,2.6c0.36,1,0.52,2.15,0.52,3.65c0,1.56,-0.19,2.8,-0.6,3.72c-0.42,0.95,-0.87,1.49,-1.95,2.36l0.14,0.24c1.11,-0.72,1.56,-1.11,2.11,-1.8c1.07,-1.3,1.59,-2.8,1.59,-4.56" fill="#000000" stroke="none" fill-opacity="1"/>
</g>
<path d="m63.39,135.81c0,-3.07,-1.36,-5.19,-3.33,-5.19c-0.82,0,-1.45,0.25,-2.01,0.78c-0.87,0.84,-1.44,2.56,-1.44,4.32c0,1.63,0.5,3.39,1.2,4.23c0.56,0.66,1.32,1.02,2.19,1.02c0.76,0,1.41,-0.25,1.95,-0.78c0.87,-0.82,1.44,-2.56,1.44,-4.38m-1.44,0.03c0,3.14,-0.66,4.74,-1.95,4.74c-1.29,0,-1.95,-1.6,-1.95,-4.72c0,-3.18,0.67,-4.85,1.97,-4.85c1.26,0,1.93,1.7,1.93,4.83" fill="#000000" stroke="none" fill-opacity="1"/>
<path d="m62.16,112.52l0,-0.22c-1.18,-0.02,-1.42,-0.17,-1.42,-0.88l0,-9l-0.12,-0.03l-2.7,1.36l0,0.21c0.18,-0.07,0.34,-0.14,0.4,-0.17c0.27,-0.1,0.52,-0.17,0.67,-0.17c0.31,0,0.45,0.22,0.45,0.71l0,6.79c0,0.5,-0.12,0.84,-0.36,0.97c-0.22,0.14,-0.43,0.18,-1.06,0.2l0,0.22l4.14,0" fill="#000000" stroke="none" fill-opacity="1"/>
<path d="m63.38,82.24l-0.2,-0.07c-0.55,0.85,-0.75,0.99,-1.42,0.99l-3.58,0l2.52,-2.64c1.34,-1.4,1.92,-2.53,1.92,-3.7c0,-1.5,-1.21,-2.65,-2.77,-2.65c-0.82,0,-1.6,0.33,-2.16,0.93c-0.48,0.51,-0.7,0.99,-0.96,2.05l0.31,0.07c0.6,-1.47,1.14,-1.95,2.17,-1.95c1.26,0,2.12,0.85,2.12,2.12c0,1.17,-0.69,2.56,-1.95,3.9l-2.67,2.84l0,0.18l5.85,0l0.82,-2.05" fill="#000000" stroke="none" fill-opacity="1"/>
<path d="m62.75,52.78c0,-0.77,-0.24,-1.47,-0.68,-1.94c-0.3,-0.33,-0.59,-0.51,-1.25,-0.79c1.04,-0.71,1.41,-1.26,1.41,-2.07c0,-1.22,-0.96,-2.05,-2.34,-2.05c-0.75,0,-1.41,0.25,-1.95,0.73c-0.45,0.4,-0.67,0.8,-1,1.7l0.22,0.06c0.62,-1.1,1.29,-1.59,2.23,-1.59c0.97,0,1.65,0.66,1.65,1.6c0,0.54,-0.22,1.08,-0.6,1.45c-0.45,0.45,-0.87,0.67,-1.89,1.03l0,0.2c0.89,0,1.24,0.03,1.6,0.17c0.93,0.33,1.52,1.18,1.52,2.22c0,1.26,-0.86,2.24,-1.98,2.24c-0.4,0,-0.7,-0.1,-1.26,-0.47c-0.45,-0.27,-0.7,-0.37,-0.96,-0.37c-0.35,0,-0.57,0.21,-0.57,0.52c0,0.52,0.65,0.85,1.7,0.85c1.16,0,2.35,-0.39,3.05,-1c0.71,-0.61,1.1,-1.48,1.1,-2.49" fill="#000000" stroke="none" fill-opacity="1"/>
<path d="m63.33,25.33l0,-0.96l-1.53,0l0,-6.67l-0.66,0l-4.71,6.67l0,0.96l4.22,0l0,2.5l1.15,0l0,-2.5l1.53,0m-2.7,-0.96l-3.6,0l3.6,-5.14l0,5.14" fill="#000000" stroke="none" fill-opacity="1"/>
</g>
<g fill="none" stroke-linecap="butt" stroke-width="1.25">
<path d="M67.75,135.51l451.69,0"/>
<path d="M503.09,135.51l0,-3.75M481.85,135.51l0,-3.75M460.62,135.51l0,-3.75M439.38,135.51l0,-3.75M418.15,135.51l0,-3.75M396.91,135.51l0,-3.75M375.67,135.51l0,-3.75M354.44,135.51l0,-3.75M333.2,135.51l0,-3.75M311.97,135.51l0,-3.75M290.73,135.51l0,-3.75M269.49,135.51l0,-3.75M248.26,135.51l0,-3.75M227.02,135.51l0,-3.75M205.79,135.51l0,-3.75M184.55,135.51l0,-3.75M163.31,135.51l0,-3.75M142.08,135.51l0,-3.75M120.84,135.51l0,-3.75M99.61,135.51l0,-3.75M78.37,135.51l0,-3.75"/>
<path d="M439.38,135.51l0,-7.5M333.2,135.51l0,-7.5M227.02,135.51l0,-7.5M120.84,135.51l0,-7.5"/>
</g>
<g fill="none" stroke-width="1">
<path d="m223.28,171.47c0,-1.35,-0.45,-2.52,-1.27,-3.35c-1.02,-1.03,-2.65,-1.57,-4.71,-1.57l-4.05,0l0,0.28c1.18,0.11,1.32,0.24,1.32,1.35l0,6.66c0,1.08,-0.18,1.27,-1.32,1.35l0,0.28l4.26,0c1.74,0,3.31,-0.5,4.25,-1.33c0.97,-0.89,1.53,-2.22,1.53,-3.67m-1.64,0.1c0,1.77,-0.61,3.03,-1.83,3.73c-0.76,0.44,-1.63,0.62,-2.94,0.62c-0.6,0,-0.78,-0.14,-0.78,-0.62l0,-7.62c0,-0.47,0.16,-0.59,0.78,-0.59c1.29,0,2.26,0.24,2.98,0.75c1.17,0.81,1.78,2.1,1.78,3.72m6.08,4.9l0,-0.22c-0.99,-0.07,-1.11,-0.22,-1.11,-1.3l0,-5.32l-0.06,-0.05l-2.32,0.82l0,0.22l0.12,-0.01c0.18,-0.03,0.37,-0.05,0.51,-0.05c0.36,0,0.5,0.24,0.5,0.9l0,3.48c0,1.08,-0.15,1.25,-1.18,1.3l0,0.22l3.55,0m-0.97,-8.85c0,-0.42,-0.33,-0.76,-0.77,-0.76c-0.42,0,-0.76,0.34,-0.76,0.76c0,0.44,0.34,0.77,0.76,0.77c0.44,0,0.77,-0.33,0.77,-0.77m6.57,7.08c0,-0.75,-0.35,-1.25,-1.26,-1.78l-1.62,-0.96c-0.42,-0.24,-0.65,-0.62,-0.65,-1.02c0,-0.62,0.46,-1.02,1.15,-1.02c0.85,0,1.3,0.5,1.65,1.85l0.22,0l-0.06,-2.04l-0.16,0l-0.03,0.03c-0.14,0.11,-0.15,0.12,-0.21,0.12c-0.09,0,-0.24,-0.03,-0.4,-0.1c-0.31,-0.12,-0.66,-0.18,-1.02,-0.18c-1.23,0,-2.07,0.75,-2.07,1.85c0,0.84,0.48,1.42,1.75,2.16l0.87,0.5c0.52,0.3,0.78,0.66,0.78,1.12c0,0.66,-0.48,1.08,-1.25,1.08c-1.03,0,-1.56,-0.57,-1.9,-2.1l-0.24,0l0,2.34l0.2,0c0.1,-0.15,0.17,-0.18,0.35,-0.18c0.16,0,0.33,0.03,0.69,0.12c0.42,0.09,0.8,0.15,1.11,0.15c1.14,0,2.1,-0.87,2.1,-1.92m4.6,0.78l-0.2,-0.16c-0.33,0.39,-0.57,0.52,-0.9,0.52c-0.56,0,-0.78,-0.39,-0.78,-1.35l0,-4.29l1.52,0l0,-0.48l-1.52,0l0,-1.74c0,-0.15,-0.03,-0.2,-0.1,-0.2c-0.09,0.15,-0.2,0.28,-0.3,0.42c-0.55,0.82,-1.06,1.38,-1.45,1.6c-0.17,0.1,-0.25,0.2,-0.25,0.28c0,0.05,0.01,0.07,0.06,0.1l0.8,0l0,4.52c0,1.26,0.45,1.9,1.32,1.9c0.75,0,1.32,-0.36,1.81,-1.14m6.61,0.39l0,-0.4c-0.25,0.22,-0.43,0.3,-0.66,0.3c-0.35,0,-0.45,-0.21,-0.45,-0.87l0,-2.92c0,-0.76,-0.07,-1.18,-0.29,-1.53c-0.31,-0.57,-0.96,-0.87,-1.87,-0.87c-0.76,0,-1.48,0.21,-1.9,0.55c-0.37,0.31,-0.61,0.75,-0.61,1.12c0,0.34,0.28,0.64,0.64,0.64c0.36,0,0.67,-0.3,0.67,-0.63c0,-0.06,-0.01,-0.13,-0.03,-0.24c-0.03,-0.14,-0.05,-0.25,-0.05,-0.36c0,-0.4,0.48,-0.73,1.08,-0.73c0.73,0,1.14,0.43,1.14,1.24l0,0.91c-2.31,0.93,-2.56,1.05,-3.21,1.62c-0.33,0.3,-0.54,0.81,-0.54,1.3c0,0.95,0.65,1.62,1.57,1.62c0.66,0,1.27,-0.32,2.19,-1.11c0.07,0.8,0.34,1.11,0.96,1.11c0.51,0,0.82,-0.18,1.35,-0.75m-2.32,-1.26c0,0.46,-0.07,0.6,-0.39,0.79c-0.36,0.21,-0.78,0.33,-1.09,0.33c-0.52,0,-0.95,-0.51,-0.95,-1.15l0,-0.06c0,-0.88,0.62,-1.42,2.43,-2.08l0,2.17m9.63,1.86l0,-0.22c-0.74,-0.07,-0.92,-0.25,-0.92,-0.99l0,-3.43c0,-1.41,-0.66,-2.25,-1.77,-2.25c-0.69,0,-1.15,0.25,-2.17,1.22l0,-1.19l-0.11,-0.03c-0.73,0.27,-1.24,0.44,-2.07,0.67l0,0.25c0.09,-0.04,0.24,-0.06,0.4,-0.06c0.42,0,0.55,0.22,0.55,0.96l0,3.72c0,0.85,-0.17,1.07,-0.93,1.12l0,0.22l3.18,0l0,-0.22c-0.77,-0.06,-0.99,-0.24,-0.99,-0.78l0,-4.22c0.72,-0.67,1.05,-0.85,1.55,-0.85c0.73,0,1.1,0.47,1.1,1.45l0,3.14c0,0.94,-0.2,1.2,-0.95,1.26l0,0.22l3.12,0m6.4,-2.2l-0.21,-0.14c-0.72,1.05,-1.26,1.41,-2.12,1.41c-1.38,0,-2.32,-1.2,-2.32,-2.92c0,-1.56,0.82,-2.61,2.04,-2.61c0.54,0,0.73,0.16,0.88,0.72l0.09,0.33c0.12,0.43,0.39,0.69,0.72,0.69c0.39,0,0.71,-0.28,0.71,-0.63c0,-0.84,-1.05,-1.55,-2.31,-1.55c-0.7,0,-1.42,0.27,-2.02,0.77c-0.81,0.67,-1.26,1.71,-1.26,2.95c0,1.93,1.18,3.33,2.85,3.33c0.65,0,1.21,-0.21,1.72,-0.63c0.45,-0.36,0.75,-0.8,1.23,-1.72m6.84,-0.15l-0.24,-0.1c-0.72,1.14,-1.37,1.57,-2.32,1.57c-0.82,0,-1.45,-0.39,-1.89,-1.2c-0.3,-0.59,-0.42,-1.11,-0.45,-2.07l4.62,0c-0.12,-0.97,-0.27,-1.41,-0.65,-1.89c-0.45,-0.54,-1.14,-0.85,-1.92,-0.85c-1.86,0,-3.13,1.5,-3.13,3.69c0,2.07,1.08,3.36,2.8,3.36c1.44,0,2.55,-0.88,3.18,-2.5m-1.81,-2.28l-3.06,0c0.17,-1.19,0.67,-1.72,1.59,-1.72c0.91,0,1.27,0.42,1.47,1.72m11.61,-4.68c0,-0.54,-0.66,-0.93,-1.56,-0.93c-0.94,0,-1.72,0.41,-2.11,1.08c-0.39,0.67,-0.51,1.21,-0.52,2.41l-1.23,0l0,0.48l1.23,0l0,4.71c0,1.09,-0.17,1.27,-1.25,1.33l0,0.22l3.9,0l0,-0.22c-1.23,-0.05,-1.4,-0.21,-1.4,-1.33l0,-4.71l1.83,0l0,-0.48l-1.84,0l0,-1.74c0,-0.89,0.28,-1.34,0.85,-1.34c0.33,0,0.52,0.15,0.79,0.59c0.24,0.4,0.42,0.54,0.67,0.54c0.36,0,0.63,-0.27,0.63,-0.61m4.27,3.21c0,-0.5,-0.32,-0.8,-0.82,-0.8c-0.63,0,-1.07,0.35,-1.8,1.41l0,-1.38l-0.07,-0.03c-0.8,0.33,-1.33,0.52,-2.22,0.81l0,0.24c0.21,-0.05,0.35,-0.06,0.52,-0.06c0.37,0,0.51,0.24,0.51,0.9l0,3.75c0,0.75,-0.11,0.85,-1.07,1.03l0,0.22l3.6,0l0,-0.22c-1.02,-0.05,-1.27,-0.27,-1.27,-1.12l0,-3.37c0,-0.48,0.65,-1.23,1.05,-1.23c0.09,0,0.22,0.07,0.39,0.22c0.24,0.21,0.4,0.3,0.6,0.3c0.36,0,0.59,-0.25,0.59,-0.67m7.02,2.6c0,-1.97,-1.38,-3.39,-3.3,-3.39c-1.95,0,-3.32,1.44,-3.32,3.51c0,2.02,1.4,3.54,3.29,3.54c1.89,0,3.33,-1.59,3.33,-3.66m-1.35,0.52c0,1.69,-0.67,2.71,-1.8,2.71c-0.58,0,-1.14,-0.36,-1.45,-0.96c-0.42,-0.78,-0.66,-1.83,-0.66,-2.9c0,-1.42,0.71,-2.35,1.77,-2.35c1.26,0,2.15,1.44,2.15,3.5m13.42,2.98l0,-0.22l-0.39,-0.03c-0.45,-0.03,-0.65,-0.3,-0.65,-0.89l0,-3.1c0,-1.77,-0.58,-2.67,-1.74,-2.67c-0.87,0,-1.64,0.39,-2.45,1.27c-0.27,-0.87,-0.78,-1.27,-1.59,-1.27c-0.66,0,-1.08,0.21,-2.32,1.17l0,-1.14l-0.11,-0.03c-0.76,0.28,-1.27,0.45,-2.1,0.67l0,0.27c0.2,-0.04,0.32,-0.06,0.48,-0.06c0.39,0,0.52,0.24,0.52,0.96l0,3.8c0,0.81,-0.21,1.03,-1.05,1.05l0,0.22l3.33,0l0,-0.22c-0.8,-0.03,-1.02,-0.2,-1.02,-0.78l0,-4.23c0,0,0.12,-0.18,0.22,-0.29c0.37,-0.35,1.02,-0.61,1.55,-0.61c0.66,0,0.99,0.53,0.99,1.59l0,3.25c0,0.84,-0.16,1.01,-1.02,1.07l0,0.22l3.36,0l0,-0.22c-0.85,-0.02,-1.08,-0.27,-1.08,-1.2l0,-3.78c0.45,-0.66,0.94,-0.93,1.63,-0.93c0.85,0,1.12,0.41,1.12,1.66l0,3.17c0,0.85,-0.12,0.97,-0.99,1.08l0,0.22l3.29,0m14.49,0l0,-0.28c-0.67,-0.05,-0.82,-0.2,-1.35,-1.31l-3.73,-8.52l-0.3,0l-3.12,7.36c-0.96,2.19,-1.14,2.42,-1.86,2.46l0,0.28l2.97,0l0,-0.28c-0.72,0,-1.02,-0.2,-1.02,-0.62c0,-0.18,0.05,-0.39,0.12,-0.58l0.69,-1.76l3.93,0l0.62,1.44c0.18,0.42,0.28,0.8,0.28,1.02c0,0.13,-0.09,0.3,-0.21,0.36c-0.18,0.1,-0.3,0.14,-0.84,0.14l0,0.28l3.82,0m-3.88,-3.85l-3.46,0l1.72,-4.12l1.74,4.12m11.5,3.85l0,-0.22c-0.74,-0.07,-0.92,-0.25,-0.92,-0.99l0,-3.43c0,-1.41,-0.66,-2.25,-1.77,-2.25c-0.69,0,-1.15,0.25,-2.17,1.22l0,-1.19l-0.11,-0.03c-0.73,0.27,-1.24,0.44,-2.07,0.67l0,0.25c0.09,-0.04,0.24,-0.06,0.4,-0.06c0.42,0,0.55,0.22,0.55,0.96l0,3.72c0,0.85,-0.17,1.07,-0.93,1.12l0,0.22l3.18,0l0,-0.22c-0.77,-0.06,-0.99,-0.24,-0.99,-0.78l0,-4.22c0.72,-0.67,1.05,-0.85,1.55,-0.85c0.73,0,1.1,0.47,1.1,1.45l0,3.14c0,0.94,-0.2,1.2,-0.95,1.26l0,0.22l3.12,0m7.27,-3.51c0,-1.97,-1.38,-3.39,-3.3,-3.39c-1.95,0,-3.32,1.44,-3.32,3.51c0,2.02,1.4,3.54,3.29,3.54c1.89,0,3.33,-1.59,3.33,-3.66m-1.35,0.52c0,1.69,-0.67,2.71,-1.8,2.71c-0.58,0,-1.14,-0.36,-1.45,-0.96c-0.42,-0.78,-0.66,-1.83,-0.66,-2.9c0,-1.42,0.71,-2.35,1.77,-2.35c1.26,0,2.15,1.44,2.15,3.5m9.16,2.35l0,-0.24c-0.27,0.02,-0.3,0.02,-0.34,0.02c-0.54,0,-0.66,-0.17,-0.66,-0.85l0,-8.5l-0.07,-0.03c-0.72,0.26,-1.25,0.41,-2.2,0.66l0,0.24c0.12,-0.01,0.21,-0.01,0.33,-0.01c0.55,0,0.69,0.15,0.69,0.76l0,2.34c-0.57,-0.48,-0.97,-0.65,-1.57,-0.65c-1.72,0,-3.12,1.7,-3.12,3.82c0,1.92,1.12,3.22,2.77,3.22c0.84,0,1.41,-0.3,1.92,-1l0,0.96l0.06,0.05l2.2,-0.78m-2.26,-0.9c0,0.1,-0.1,0.28,-0.25,0.45c-0.27,0.3,-0.65,0.45,-1.08,0.45c-1.25,0,-2.07,-1.2,-2.07,-3.05c0,-1.7,0.73,-2.8,1.87,-2.8c0.79,0,1.53,0.7,1.53,1.5l0,3.45m8.76,-0.82l-0.24,-0.1c-0.72,1.14,-1.37,1.57,-2.32,1.57c-0.82,0,-1.45,-0.39,-1.89,-1.2c-0.3,-0.59,-0.42,-1.11,-0.45,-2.07l4.62,0c-0.12,-0.97,-0.27,-1.41,-0.65,-1.89c-0.45,-0.54,-1.14,-0.85,-1.92,-0.85c-1.86,0,-3.13,1.5,-3.13,3.69c0,2.07,1.08,3.36,2.8,3.36c1.44,0,2.55,-0.88,3.18,-2.5m-1.81,-2.28l-3.06,0c0.17,-1.19,0.67,-1.72,1.59,-1.72c0.91,0,1.27,0.42,1.47,1.72m10.42,7.05c-1.2,-0.95,-1.62,-1.47,-2.02,-2.6c-0.36,-1,-0.52,-2.15,-0.52,-3.65c0,-1.57,0.2,-2.8,0.6,-3.73c0.42,-0.93,0.87,-1.47,1.95,-2.34l-0.13,-0.24c-1.11,0.72,-1.56,1.11,-2.12,1.8c-1.06,1.3,-1.59,2.8,-1.59,4.56c0,1.9,0.55,3.37,1.87,4.9c0.61,0.72,1,1.05,1.78,1.53l0.18,-0.24m6.61,-4.62l-0.21,-0.14c-0.72,1.05,-1.26,1.41,-2.12,1.41c-1.38,0,-2.32,-1.2,-2.32,-2.92c0,-1.56,0.82,-2.61,2.04,-2.61c0.54,0,0.73,0.16,0.88,0.72l0.09,0.33c0.12,0.43,0.39,0.69,0.72,0.69c0.39,0,0.71,-0.28,0.71,-0.63c0,-0.84,-1.05,-1.55,-2.31,-1.55c-0.7,0,-1.42,0.27,-2.02,0.77c-0.81,0.67,-1.26,1.71,-1.26,2.95c0,1.93,1.18,3.33,2.85,3.33c0.65,0,1.21,-0.21,1.72,-0.63c0.45,-0.36,0.75,-0.8,1.23,-1.72m12.1,2.2l0,-0.22l-0.39,-0.03c-0.45,-0.03,-0.65,-0.3,-0.65,-0.89l0,-3.1c0,-1.77,-0.58,-2.67,-1.74,-2.67c-0.87,0,-1.64,0.39,-2.45,1.27c-0.27,-0.87,-0.78,-1.27,-1.59,-1.27c-0.66,0,-1.08,0.21,-2.32,1.17l0,-1.14l-0.11,-0.03c-0.76,0.28,-1.27,0.45,-2.1,0.67l0,0.27c0.2,-0.04,0.32,-0.06,0.48,-0.06c0.39,0,0.52,0.24,0.52,0.96l0,3.8c0,0.81,-0.21,1.03,-1.05,1.05l0,0.22l3.33,0l0,-0.22c-0.8,-0.03,-1.02,-0.2,-1.02,-0.78l0,-4.23c0,0,0.12,-0.18,0.22,-0.29c0.37,-0.35,1.02,-0.61,1.55,-0.61c0.66,0,0.99,0.53,0.99,1.59l0,3.25c0,0.84,-0.16,1.01,-1.02,1.07l0,0.22l3.36,0l0,-0.22c-0.85,-0.02,-1.08,-0.27,-1.08,-1.2l0,-3.78c0.45,-0.66,0.94,-0.93,1.63,-0.93c0.85,0,1.12,0.41,1.12,1.66l0,3.17c0,0.85,-0.12,0.97,-0.99,1.08l0,0.22l3.29,0m4.32,-3.7c0,-1.92,-0.55,-3.37,-1.87,-4.9c-0.62,-0.72,-1,-1.05,-1.78,-1.53l-0.18,0.24c1.2,0.95,1.61,1.47,2.02,2.6c0.36,1,0.52,2.15,0.52,3.65c0,1.56,-0.19,2.8,-0.6,3.72c-0.42,0.95,-0.87,1.49,-1.95,2.36l0.14,0.24c1.11,-0.72,1.56,-1.11,2.11,-1.8c1.07,-1.3,1.59,-2.8,1.59,-4.56" fill="#000000" stroke="none" fill-opacity="1"/>
<path d="m442.77,150.46c0,-3.07,-1.36,-5.19,-3.33,-5.19c-0.82,0,-1.45,0.25,-2.01,0.78c-0.87,0.84,-1.44,2.56,-1.44,4.32c0,1.63,0.5,3.39,1.2,4.23c0.56,0.66,1.32,1.02,2.19,1.02c0.76,0,1.41,-0.25,1.95,-0.78c0.87,-0.82,1.44,-2.56,1.44,-4.38m-1.44,0.03c0,3.14,-0.66,4.74,-1.95,4.74c-1.29,0,-1.95,-1.6,-1.95,-4.72c0,-3.18,0.67,-4.85,1.97,-4.85c1.26,0,1.93,1.7,1.93,4.83" fill="#000000" stroke="none" fill-opacity="1"/>
<path d="m331.61,155.41l0,-0.22c-1.18,-0.02,-1.42,-0.17,-1.42,-0.88l0,-9l-0.12,-0.03l-2.7,1.36l0,0.21c0.18,-0.07,0.34,-0.14,0.4,-0.17c0.27,-0.1,0.52,-0.17,0.67,-0.17c0.31,0,0.45,0.22,0.45,0.71l0,6.79c0,0.5,-0.12,0.84,-0.36,0.97c-0.22,0.14,-0.43,0.18,-1.06,0.2l0,0.22l4.14,0m8.73,-4.95c0,-3.07,-1.36,-5.19,-3.33,-5.19c-0.82,0,-1.45,0.25,-2.01,0.78c-0.87,0.84,-1.44,2.56,-1.44,4.32c0,1.63,0.5,3.39,1.2,4.23c0.56,0.66,1.32,1.02,2.19,1.02c0.76,0,1.41,-0.25,1.95,-0.78c0.87,-0.82,1.44,-2.56,1.44,-4.38m-1.44,0.03c0,3.14,-0.66,4.74,-1.95,4.74c-1.29,0,-1.95,-1.6,-1.95,-4.72c0,-3.18,0.67,-4.85,1.97,-4.85c1.26,0,1.93,1.7,1.93,4.83" fill="#000000" stroke="none" fill-opacity="1"/>
<path d="m226.65,153.35l-0.2,-0.07c-0.55,0.85,-0.75,0.99,-1.42,0.99l-3.58,0l2.52,-2.64c1.34,-1.4,1.92,-2.53,1.92,-3.7c0,-1.5,-1.21,-2.65,-2.77,-2.65c-0.82,0,-1.6,0.33,-2.16,0.93c-0.48,0.51,-0.7,0.99,-0.96,2.05l0.31,0.07c0.6,-1.47,1.14,-1.95,2.17,-1.95c1.26,0,2.12,0.85,2.12,2.12c0,1.17,-0.69,2.56,-1.95,3.9l-2.67,2.84l0,0.18l5.85,0l0.82,-2.05m7.51,-2.9c0,-3.07,-1.36,-5.19,-3.33,-5.19c-0.82,0,-1.45,0.25,-2.01,0.78c-0.87,0.84,-1.44,2.56,-1.44,4.32c0,1.63,0.5,3.39,1.2,4.23c0.56,0.66,1.32,1.02,2.19,1.02c0.76,0,1.41,-0.25,1.95,-0.78c0.87,-0.82,1.44,-2.56,1.44,-4.38m-1.44,0.03c0,3.14,-0.66,4.74,-1.95,4.74c-1.29,0,-1.95,-1.6,-1.95,-4.72c0,-3.18,0.67,-4.85,1.97,-4.85c1.26,0,1.93,1.7,1.93,4.83" fill="#000000" stroke="none" fill-opacity="1"/>
<path d="m119.84,152.12c0,-0.77,-0.24,-1.47,-0.68,-1.94c-0.3,-0.33,-0.59,-0.51,-1.25,-0.79c1.04,-0.71,1.41,-1.26,1.41,-2.07c0,-1.22,-0.96,-2.05,-2.34,-2.05c-0.75,0,-1.41,0.25,-1.95,0.73c-0.45,0.4,-0.67,0.8,-1,1.7l0.22,0.06c0.62,-1.1,1.29,-1.59,2.23,-1.59c0.97,0,1.65,0.66,1.65,1.6c0,0.54,-0.22,1.08,-0.6,1.45c-0.45,0.45,-0.87,0.67,-1.89,1.03l0,0.2c0.89,0,1.24,0.03,1.6,0.17c0.93,0.33,1.52,1.18,1.52,2.22c0,1.26,-0.86,2.24,-1.98,2.24c-0.4,0,-0.7,-0.1,-1.26,-0.47c-0.45,-0.27,-0.7,-0.37,-0.96,-0.37c-0.35,0,-0.57,0.21,-0.57,0.52c0,0.52,0.65,0.85,1.7,0.85c1.16,0,2.35,-0.39,3.05,-1c0.71,-0.61,1.1,-1.48,1.1,-2.49m8.14,-1.67c0,-3.07,-1.36,-5.19,-3.33,-5.19c-0.82,0,-1.45,0.25,-2.01,0.78c-0.87,0.84,-1.44,2.56,-1.44,4.32c0,1.63,0.5,3.39,1.2,4.23c0.56,0.66,1.32,1.02,2.19,1.02c0.76,0,1.41,-0.25,1.95,-0.78c0.87,-0.82,1.44,-2.56,1.44,-4.38m-1.44,0.03c0,3.14,-0.66,4.74,-1.95,4.74c-1.29,0,-1.95,-1.6,-1.95,-4.72c0,-3.18,0.67,-4.85,1.97,-4.85c1.26,0,1.93,1.7,1.93,4.83" fill="#000000" stroke="none" fill-opacity="1"/>
</g>
</g>
</g>
</svg>
